<mxfile host="app.diagrams.net" modified="2024-06-13T02:05:11.399Z" agent="Mozilla/5.0 (Windows NT 10.0; Win64; x64) AppleWebKit/537.36 (KHTML, like Gecko) Chrome/121.0.0.0 Safari/537.36" version="24.5.4" etag="Yc2qXABfA1EId1lGTs-Q" type="github">
  <diagram name="第 1 页" id="HIKA64H6gUWJMj0aMtDX">
    <mxGraphModel>
      <root>
        <mxCell id="0" />
        <mxCell id="1" parent="0" />
        <mxCell id="2" value="系统用户" style="whiteSpace=wrap;strokeWidth=2;" vertex="1" parent="1">
          <mxGeometry y="87" width="79" height="37" as="geometry" />
        </mxCell>
        <mxCell id="3" value="数据权限控制" style="rounded=1;absoluteArcSize=1;arcSize=14;whiteSpace=wrap;strokeWidth=2;" vertex="1" parent="1">
          <mxGeometry x="161" y="87" width="111" height="37" as="geometry" />
        </mxCell>
        <mxCell id="4" value="部门权限" style="rounded=1;absoluteArcSize=1;arcSize=14;whiteSpace=wrap;strokeWidth=2;" vertex="1" parent="1">
          <mxGeometry x="354" width="79" height="37" as="geometry" />
        </mxCell>
        <mxCell id="5" value="角色权限" style="rounded=1;absoluteArcSize=1;arcSize=14;whiteSpace=wrap;strokeWidth=2;" vertex="1" parent="1">
          <mxGeometry x="354" y="87" width="79" height="37" as="geometry" />
        </mxCell>
        <mxCell id="6" value="个人权限" style="rounded=1;absoluteArcSize=1;arcSize=14;whiteSpace=wrap;strokeWidth=2;" vertex="1" parent="1">
          <mxGeometry x="354" y="174" width="79" height="37" as="geometry" />
        </mxCell>
        <mxCell id="7" value="组织权限" style="rounded=1;absoluteArcSize=1;arcSize=14;whiteSpace=wrap;strokeWidth=2;" vertex="1" parent="1">
          <mxGeometry x="531" y="87" width="79" height="37" as="geometry" />
        </mxCell>
        <mxCell id="8" value="关联" style="curved=1;startArrow=none;endArrow=block;exitX=1;exitY=0.5;entryX=0;entryY=0.5;" edge="1" parent="1" source="2" target="3">
          <mxGeometry relative="1" as="geometry">
            <Array as="points" />
          </mxGeometry>
        </mxCell>
        <mxCell id="9" value="包含" style="curved=1;startArrow=none;endArrow=block;exitX=0.68;exitY=0;entryX=0;entryY=0.5;" edge="1" parent="1" source="3" target="4">
          <mxGeometry relative="1" as="geometry">
            <Array as="points">
              <mxPoint x="313" y="19" />
            </Array>
          </mxGeometry>
        </mxCell>
        <mxCell id="10" value="包含" style="curved=1;startArrow=none;endArrow=block;exitX=1;exitY=0.5;entryX=0;entryY=0.5;" edge="1" parent="1" source="3" target="5">
          <mxGeometry relative="1" as="geometry">
            <Array as="points" />
          </mxGeometry>
        </mxCell>
        <mxCell id="11" value="包含" style="curved=1;startArrow=none;endArrow=block;exitX=0.68;exitY=1;entryX=0;entryY=0.5;" edge="1" parent="1" source="3" target="6">
          <mxGeometry relative="1" as="geometry">
            <Array as="points">
              <mxPoint x="313" y="193" />
            </Array>
          </mxGeometry>
        </mxCell>
        <mxCell id="12" value="继承自" style="curved=1;startArrow=none;endArrow=block;exitX=1;exitY=0.5;entryX=0.26;entryY=0;" edge="1" parent="1" source="4" target="7">
          <mxGeometry relative="1" as="geometry">
            <Array as="points">
              <mxPoint x="482" y="19" />
            </Array>
          </mxGeometry>
        </mxCell>
        <mxCell id="13" value="继承自" style="curved=1;startArrow=none;endArrow=block;exitX=1;exitY=0.5;entryX=0;entryY=0.5;" edge="1" parent="1" source="5" target="7">
          <mxGeometry relative="1" as="geometry">
            <Array as="points" />
          </mxGeometry>
        </mxCell>
        <mxCell id="14" value="继承自" style="curved=1;startArrow=none;endArrow=block;exitX=1;exitY=0.5;entryX=0.26;entryY=1;" edge="1" parent="1" source="6" target="7">
          <mxGeometry relative="1" as="geometry">
            <Array as="points">
              <mxPoint x="482" y="193" />
            </Array>
          </mxGeometry>
        </mxCell>
      </root>
    </mxGraphModel>
  </diagram>
</mxfile>
